<svg width="24" height="24" viewBox="0 0 24 24" fill="none" xmlns="http://www.w3.org/2000/svg">
<path d="M6.96888 6.9635C7.03854 6.89366 7.12131 6.83824 7.21242 6.80044C7.30354 6.76263 7.40122 6.74316 7.49988 6.74316C7.59853 6.74316 7.69621 6.76263 7.78733 6.80044C7.87844 6.83824 7.96121 6.89366 8.03088 6.9635L11.9999 10.934L15.9689 6.9635C16.0386 6.89377 16.1214 6.83846 16.2125 6.80072C16.3036 6.76298 16.4013 6.74356 16.4999 6.74356C16.5985 6.74356 16.6961 6.76298 16.7873 6.80072C16.8784 6.83846 16.9611 6.89377 17.0309 6.9635C17.1006 7.03324 17.1559 7.11602 17.1937 7.20713C17.2314 7.29824 17.2508 7.39589 17.2508 7.4945C17.2508 7.59312 17.2314 7.69077 17.1937 7.78188C17.1559 7.87299 17.1006 7.95577 17.0309 8.0255L13.0604 11.9945L17.0309 15.9635C17.1006 16.0332 17.1559 16.116 17.1937 16.2071C17.2314 16.2982 17.2508 16.3959 17.2508 16.4945C17.2508 16.5931 17.2314 16.6908 17.1937 16.7819C17.1559 16.873 17.1006 16.9558 17.0309 17.0255C16.9611 17.0952 16.8784 17.1505 16.7873 17.1883C16.6961 17.226 16.5985 17.2455 16.4999 17.2455C16.4013 17.2455 16.3036 17.226 16.2125 17.1883C16.1214 17.1505 16.0386 17.0952 15.9689 17.0255L11.9999 13.055L8.03088 17.0255C7.96114 17.0952 7.87836 17.1505 7.78725 17.1883C7.69614 17.226 7.59849 17.2455 7.49988 17.2455C7.40126 17.2455 7.30361 17.226 7.2125 17.1883C7.12139 17.1505 7.03861 17.0952 6.96888 17.0255C6.89914 16.9558 6.84383 16.873 6.80609 16.7819C6.76835 16.6908 6.74893 16.5931 6.74893 16.4945C6.74893 16.3959 6.76835 16.2982 6.80609 16.2071C6.84383 16.116 6.89914 16.0332 6.96888 15.9635L10.9394 11.9945L6.96888 8.0255C6.89903 7.95584 6.84362 7.87307 6.80581 7.78195C6.768 7.69084 6.74854 7.59316 6.74854 7.4945C6.74854 7.39585 6.768 7.29817 6.80581 7.20705C6.84362 7.11594 6.89903 7.03317 6.96888 6.9635Z" fill="#060326"/>
</svg>
