<svg width="16" height="16" viewBox="0 0 16 16" fill="none" xmlns="http://www.w3.org/2000/svg">
<path d="M8.25977 2.89111C8.25977 2.54594 7.97994 2.26611 7.63477 2.26611C7.28959 2.26611 7.00977 2.54594 7.00977 2.89111V7.26611H2.63477C2.28959 7.26611 2.00977 7.54594 2.00977 7.89111C2.00977 8.23629 2.28959 8.51611 2.63477 8.51611H7.00977V12.8911C7.00977 13.2363 7.28959 13.5161 7.63477 13.5161C7.97994 13.5161 8.25977 13.2363 8.25977 12.8911V8.51611H12.6348C12.9799 8.51611 13.2598 8.23629 13.2598 7.89111C13.2598 7.54594 12.9799 7.26611 12.6348 7.26611H8.25977V2.89111Z" fill="#5B4CF0"/>
</svg>
