<svg width="16" height="17" viewBox="0 0 16 17" fill="none" xmlns="http://www.w3.org/2000/svg">
<path d="M13.136 8.49998L7.47472 2.68198C7.4281 2.63509 7.39126 2.57943 7.3663 2.51821C7.34134 2.45699 7.32878 2.39142 7.32932 2.32531C7.32987 2.2592 7.34353 2.19386 7.3695 2.13306C7.39547 2.07226 7.43324 2.01722 7.48062 1.97111C7.528 1.92501 7.58406 1.88876 7.64555 1.86446C7.70703 1.84016 7.77273 1.8283 7.83883 1.82956C7.90493 1.83082 7.97012 1.84517 8.03064 1.87179C8.09115 1.89841 8.14579 1.93677 8.19138 1.98465L14.1914 8.15131C14.2822 8.24466 14.333 8.36975 14.333 8.49998C14.333 8.63021 14.2822 8.7553 14.1914 8.84865L8.19138 15.0153C8.14579 15.0632 8.09115 15.1015 8.03064 15.1282C7.97012 15.1548 7.90493 15.1691 7.83883 15.1704C7.77273 15.1717 7.70703 15.1598 7.64555 15.1355C7.58406 15.1112 7.528 15.075 7.48062 15.0288C7.43324 14.9827 7.39547 14.9277 7.3695 14.8669C7.34353 14.8061 7.32987 14.7408 7.32932 14.6746C7.32878 14.6085 7.34134 14.543 7.3663 14.4818C7.39126 14.4205 7.4281 14.3649 7.47472 14.318L13.136 8.49998Z" fill="#5B4CF0"/>
</svg>
