<svg width="210" height="34" viewBox="0 0 210 34" fill="none" xmlns="http://www.w3.org/2000/svg">
<path d="M9.69002 33.3632H0.666016V1.20321H12.906L18.81 14.5472L21.978 22.8512H22.602L25.626 14.5472L31.242 1.20321H43.482V33.3632H34.458V20.0672L34.794 14.6912H34.17L32.346 20.0672L27.546 31.4432H16.602L11.802 20.0672L9.97802 14.6912H9.35402L9.69002 20.0672V33.3632Z" fill="url(#paint0_linear_372_9517)"/>
<path d="M72.2091 33.3632H46.0971V25.2512H72.2091V33.3632ZM71.4892 21.2192H46.0971V13.1552H71.4892V21.2192ZM72.2091 9.3152H46.0971V1.20321H72.2091V9.3152Z" fill="url(#paint1_linear_372_9517)"/>
<path d="M108.01 33.3632H97.882L98.1061 32.8437L111.754 1.20321H124.666L138.586 33.3632H128.218L120.586 14.7872L118.474 9.36321H117.85L115.786 14.7872L108.01 33.3632Z" fill="url(#paint2_linear_372_9517)"/>
<path d="M154.566 32.8832H140.55V24.7712H154.566C156.486 24.7712 158.006 24.6112 159.126 24.2912C160.246 23.9712 161.046 23.2512 161.526 22.1312C162.006 20.9792 162.246 19.2032 162.246 16.8032C162.246 14.3712 162.006 12.5952 161.526 11.4752C161.046 10.3552 160.246 9.63516 159.126 9.31516C158.006 8.99516 156.486 8.83516 154.566 8.83516H140.55V0.723164H154.566C158.118 0.723164 161.19 1.36316 163.782 2.64316C166.374 3.89116 168.374 5.71516 169.782 8.11516C171.19 10.5152 171.894 13.4112 171.894 16.8032C171.894 20.1952 171.19 23.0912 169.782 25.4912C168.374 27.8912 166.374 29.7312 163.782 31.0112C161.19 32.2592 158.118 32.8832 154.566 32.8832Z" fill="url(#paint3_linear_372_9517)"/>
<path d="M191.61 33.3632C187.898 33.3632 184.698 32.6912 182.01 31.3472C179.354 29.9712 177.322 28.0512 175.914 25.5872C174.506 23.0912 173.802 20.1632 173.802 16.8032C173.802 13.4432 174.506 10.5312 175.914 8.06716C177.322 5.57116 179.354 3.65116 182.01 2.30716C184.698 0.931164 187.898 0.243164 191.61 0.243164C195.45 0.243164 198.698 0.931164 201.354 2.30716C204.042 3.65116 206.09 5.57116 207.498 8.06716C208.906 10.5312 209.61 13.4432 209.61 16.8032C209.61 20.1632 208.906 23.0912 207.498 25.5872C206.09 28.0512 204.042 29.9712 201.354 31.3472C198.698 32.6912 195.45 33.3632 191.61 33.3632ZM191.61 24.7232C193.786 24.7232 195.482 24.5152 196.698 24.0992C197.914 23.6512 198.762 22.8512 199.242 21.6992C199.754 20.5472 200.01 18.9152 200.01 16.8032C200.01 14.6592 199.754 13.0272 199.242 11.9072C198.762 10.7552 197.914 9.97116 196.698 9.55516C195.482 9.10716 193.786 8.88316 191.61 8.88316C189.434 8.88316 187.754 9.10716 186.57 9.55516C185.386 9.97116 184.554 10.7552 184.074 11.9072C183.626 13.0272 183.402 14.6592 183.402 16.8032C183.402 18.9152 183.626 20.5472 184.074 21.6992C184.554 22.8512 185.386 23.6512 186.57 24.0992C187.754 24.5152 189.434 24.7232 191.61 24.7232Z" fill="url(#paint4_linear_372_9517)"/>
<path d="M91.6908 2.3552C89.7708 1.5872 87.3868 1.20321 84.5387 1.20321H75.1547H74.7592L74.7947 9.3152H84.4427C85.7547 9.3152 86.6827 9.5232 87.2267 9.9392C87.7707 10.3552 88.0427 11.2032 88.0427 12.4832C88.0427 13.8592 87.7707 14.7392 87.2267 15.1232C86.6827 15.5072 85.7547 15.6992 84.4427 15.6992H74.7947V22.4192H78.4907C79.6747 22.4192 80.6027 22.5152 81.2747 22.7072C81.9467 22.8672 82.4907 23.1712 82.9067 23.6192C83.3227 24.0672 83.7227 24.6912 84.1067 25.4912L87.9467 33.3632H97.882L98.1061 32.8437L94.3787 25.2992C93.7707 24.0832 93.0987 23.0752 92.3627 22.2752C91.6587 21.4432 90.4747 20.8192 88.8107 20.4032V19.9232C90.8587 19.6672 92.5227 19.1712 93.8027 18.4352C95.0827 17.6672 96.0107 16.6752 96.5867 15.4592C97.1947 14.2112 97.4987 12.7392 97.4987 11.0432C97.4987 8.9312 97.0027 7.1552 96.0107 5.7152C95.0507 4.2432 93.6108 3.1232 91.6908 2.3552Z" fill="url(#paint5_linear_372_9517)"/>
<path d="M191.61 24.7232C193.786 24.7232 195.482 24.5152 196.698 24.0992C197.914 23.6512 198.762 22.8512 199.242 21.6992C199.754 20.5472 200.01 18.9152 200.01 16.8032C200.01 14.6592 199.754 13.0272 199.242 11.9072C198.762 10.7552 197.914 9.97116 196.698 9.55516C195.482 9.10716 193.786 8.88316 191.61 8.88316C189.434 8.88316 187.754 9.10716 186.57 9.55516C185.386 9.97116 184.554 10.7552 184.074 11.9072C183.626 13.0272 183.402 14.6592 183.402 16.8032C183.402 18.9152 183.626 20.5472 184.074 21.6992C184.554 22.8512 185.386 23.6512 186.57 24.0992C187.754 24.5152 189.434 24.7232 191.61 24.7232Z" fill="url(#paint6_linear_372_9517)"/>
<path d="M196.345 21.8032C195.42 21.8032 194.679 22.5448 194.679 23.4698C194.679 23.9119 194.854 24.3358 195.167 24.6484C195.479 24.9609 195.903 25.1365 196.345 25.1365C196.787 25.1365 197.211 24.9609 197.524 24.6484C197.836 24.3358 198.012 23.9119 198.012 23.4698C198.012 23.0278 197.836 22.6039 197.524 22.2913C197.211 21.9788 196.787 21.8032 196.345 21.8032ZM183.012 8.46985V10.1365H184.679L187.679 16.4615L186.545 18.5032C186.42 18.7365 186.345 19.0115 186.345 19.3032C186.345 19.7452 186.521 20.1691 186.834 20.4817C187.146 20.7943 187.57 20.9698 188.012 20.9698H198.012V19.3032H188.362C188.307 19.3032 188.254 19.2812 188.215 19.2422C188.176 19.2031 188.154 19.1501 188.154 19.0948C188.154 19.0532 188.162 19.0198 188.179 18.9948L188.929 17.6365H195.137C195.762 17.6365 196.312 17.2865 196.595 16.7782L199.579 11.3865C199.637 11.2532 199.679 11.1115 199.679 10.9698C199.679 10.7488 199.591 10.5369 199.435 10.3806C199.278 10.2243 199.066 10.1365 198.845 10.1365H186.52L185.737 8.46985M188.012 21.8032C187.087 21.8032 186.345 22.5448 186.345 23.4698C186.345 23.9119 186.521 24.3358 186.834 24.6484C187.146 24.9609 187.57 25.1365 188.012 25.1365C188.454 25.1365 188.878 24.9609 189.191 24.6484C189.503 24.3358 189.679 23.9119 189.679 23.4698C189.679 23.0278 189.503 22.6039 189.191 22.2913C188.878 21.9788 188.454 21.8032 188.012 21.8032Z" fill="white"/>
<defs>
<linearGradient id="paint0_linear_372_9517" x1="0.666016" y1="77.2197" x2="211.118" y2="73.2744" gradientUnits="userSpaceOnUse">
<stop stop-color="#5B4CF0"/>
<stop offset="0.47" stop-color="#4C7AF0"/>
<stop offset="1" stop-color="#A84CF0"/>
</linearGradient>
<linearGradient id="paint1_linear_372_9517" x1="0.666016" y1="77.2197" x2="211.118" y2="73.2744" gradientUnits="userSpaceOnUse">
<stop stop-color="#5B4CF0"/>
<stop offset="0.47" stop-color="#4C7AF0"/>
<stop offset="1" stop-color="#A84CF0"/>
</linearGradient>
<linearGradient id="paint2_linear_372_9517" x1="0.666016" y1="77.2197" x2="211.118" y2="73.2744" gradientUnits="userSpaceOnUse">
<stop stop-color="#5B4CF0"/>
<stop offset="0.47" stop-color="#4C7AF0"/>
<stop offset="1" stop-color="#A84CF0"/>
</linearGradient>
<linearGradient id="paint3_linear_372_9517" x1="0.666016" y1="77.2197" x2="211.118" y2="73.2744" gradientUnits="userSpaceOnUse">
<stop stop-color="#5B4CF0"/>
<stop offset="0.47" stop-color="#4C7AF0"/>
<stop offset="1" stop-color="#A84CF0"/>
</linearGradient>
<linearGradient id="paint4_linear_372_9517" x1="0.666016" y1="77.2197" x2="211.118" y2="73.2744" gradientUnits="userSpaceOnUse">
<stop stop-color="#5B4CF0"/>
<stop offset="0.47" stop-color="#4C7AF0"/>
<stop offset="1" stop-color="#A84CF0"/>
</linearGradient>
<linearGradient id="paint5_linear_372_9517" x1="0.666016" y1="77.2197" x2="211.118" y2="73.2744" gradientUnits="userSpaceOnUse">
<stop stop-color="#5B4CF0"/>
<stop offset="0.47" stop-color="#4C7AF0"/>
<stop offset="1" stop-color="#A84CF0"/>
</linearGradient>
<linearGradient id="paint6_linear_372_9517" x1="0.666016" y1="77.2197" x2="211.118" y2="73.2744" gradientUnits="userSpaceOnUse">
<stop stop-color="#5B4CF0"/>
<stop offset="0.47" stop-color="#4C7AF0"/>
<stop offset="1" stop-color="#A84CF0"/>
</linearGradient>
</defs>
</svg>
