<svg width="210" height="34" viewBox="0 0 210 34" fill="none" xmlns="http://www.w3.org/2000/svg">
<path d="M9.69002 34H0.666016V1.83998H12.906L18.81 15.184L21.978 23.488H22.602L25.626 15.184L31.242 1.83998H43.482V34H34.458V20.704L34.794 15.328H34.17L32.346 20.704L27.546 32.08H16.602L11.802 20.704L9.97802 15.328H9.35402L9.69002 20.704V34Z" fill="white"/>
<path d="M72.2091 34H46.0971V25.888H72.2091V34ZM71.4892 21.856H46.0971V13.792H71.4892V21.856ZM72.2091 9.95198H46.0971V1.83998H72.2091V9.95198Z" fill="white"/>
<path d="M108.01 34H97.882L98.1061 33.4805L111.754 1.83998H124.666L138.586 34H128.218L120.586 15.424L118.474 9.99999H117.85L115.786 15.424L108.01 34Z" fill="white"/>
<path d="M154.566 33.5199H140.55V25.4079H154.566C156.486 25.4079 158.006 25.2479 159.126 24.9279C160.246 24.6079 161.046 23.8879 161.526 22.7679C162.006 21.6159 162.246 19.8399 162.246 17.4399C162.246 15.0079 162.006 13.2319 161.526 12.1119C161.046 10.9919 160.246 10.2719 159.126 9.95194C158.006 9.63194 156.486 9.47194 154.566 9.47194H140.55V1.35994H154.566C158.118 1.35994 161.19 1.99994 163.782 3.27994C166.374 4.52794 168.374 6.35194 169.782 8.75194C171.19 11.1519 171.894 14.0479 171.894 17.4399C171.894 20.8319 171.19 23.7279 169.782 26.1279C168.374 28.5279 166.374 30.3679 163.782 31.6479C161.19 32.8959 158.118 33.5199 154.566 33.5199Z" fill="white"/>
<path d="M91.6908 2.99198C89.7708 2.22398 87.3868 1.83998 84.5387 1.83998H75.1547H74.7592L74.7947 9.95198H84.4427C85.7547 9.95198 86.6827 10.16 87.2267 10.576C87.7707 10.992 88.0427 11.84 88.0427 13.12C88.0427 14.496 87.7707 15.376 87.2267 15.76C86.6827 16.144 85.7547 16.336 84.4427 16.336H74.7947V23.056H78.4907C79.6747 23.056 80.6027 23.152 81.2747 23.344C81.9467 23.504 82.4907 23.808 82.9067 24.256C83.3227 24.704 83.7227 25.328 84.1067 26.128L87.9467 34H97.882L98.1061 33.4805L94.3787 25.936C93.7707 24.72 93.0987 23.712 92.3627 22.912C91.6587 22.08 90.4747 21.456 88.8107 21.04V20.56C90.8587 20.304 92.5227 19.808 93.8027 19.072C95.0827 18.304 96.0107 17.312 96.5867 16.096C97.1947 14.848 97.4987 13.376 97.4987 11.68C97.4987 9.56798 97.0027 7.79198 96.0107 6.35198C95.0507 4.87998 93.6108 3.75998 91.6908 2.99198Z" fill="white"/>
<path d="M199.242 22.3359C199.754 21.1839 200.01 19.5519 200.01 17.4399C200.01 15.2959 199.754 13.6639 199.242 12.5439C199.16 12.348 199.068 12.1628 198.965 11.9881L196.158 17.0603C195.875 17.5686 195.325 17.9186 194.7 17.9186H188.492L187.742 19.2769C187.725 19.3019 187.717 19.3353 187.717 19.3769C187.717 19.4322 187.739 19.4852 187.778 19.5243C187.817 19.5633 187.87 19.5853 187.925 19.5853H197.575V21.2519H187.575C187.133 21.2519 186.709 21.0763 186.396 20.7638C186.084 20.4512 185.908 20.0273 185.908 19.5853C185.908 19.2936 185.983 19.0186 186.108 18.7853L187.242 16.7436L184.728 11.444C184.464 11.763 184.246 12.1297 184.074 12.5439C183.626 13.6639 183.402 15.2959 183.402 17.4399C183.402 19.5519 183.626 21.1839 184.074 22.3359C184.488 23.3298 185.164 24.0616 186.102 24.5315C185.976 24.2935 185.908 24.0262 185.908 23.7519C185.908 22.8269 186.65 22.0853 187.575 22.0853C188.017 22.0853 188.441 22.2609 188.753 22.5734C189.066 22.886 189.242 23.3099 189.242 23.7519C189.242 24.194 189.066 24.6179 188.753 24.9305C188.662 25.022 188.561 25.1018 188.453 25.1688C189.353 25.2962 190.405 25.3599 191.61 25.3599C192.904 25.3599 194.029 25.2863 194.984 25.139C194.893 25.0785 194.808 25.0088 194.73 24.9305C194.417 24.6179 194.242 24.194 194.242 23.7519C194.242 22.8269 194.983 22.0853 195.908 22.0853C196.35 22.0853 196.774 22.2609 197.087 22.5734C197.399 22.886 197.575 23.3099 197.575 23.7519C197.575 23.9723 197.531 24.1882 197.449 24.388C198.27 23.9178 198.867 23.2338 199.242 22.3359Z" fill="white"/>
<path fill-rule="evenodd" clip-rule="evenodd" d="M191.61 33.9999C187.898 33.9999 184.698 33.3279 182.01 31.9839C179.354 30.6079 177.322 28.6879 175.914 26.2239C174.506 23.7279 173.802 20.7999 173.802 17.4399C173.802 14.0799 174.506 11.1679 175.914 8.70394C177.322 6.20794 179.354 4.28794 182.01 2.94394C184.698 1.56794 187.898 0.879944 191.61 0.879944C195.45 0.879944 198.698 1.56794 201.354 2.94394C204.042 4.28794 206.09 6.20794 207.498 8.70394C208.906 11.1679 209.61 14.0799 209.61 17.4399C209.61 20.7999 208.906 23.7279 207.498 26.2239C206.09 28.6879 204.042 30.6079 201.354 31.9839C198.698 33.3279 195.45 33.9999 191.61 33.9999ZM191.61 25.3599C192.904 25.3599 194.029 25.2863 194.984 25.139C195.256 25.32 195.577 25.4186 195.908 25.4186C196.35 25.4186 196.774 25.243 197.087 24.9305C197.243 24.7737 197.366 24.589 197.449 24.388C198.27 23.9178 198.867 23.2338 199.242 22.3359C199.754 21.1839 200.01 19.5519 200.01 17.4399C200.01 15.2959 199.754 13.6639 199.242 12.5439C199.16 12.348 199.068 12.1628 198.965 11.9881L199.142 11.6686C199.2 11.5353 199.242 11.3936 199.242 11.2519C199.242 11.0309 199.154 10.819 198.997 10.6627C198.841 10.5064 198.629 10.4186 198.408 10.4186H197.25C197.075 10.3337 196.891 10.2582 196.698 10.1919C195.482 9.74394 193.786 9.51994 191.61 9.51994C189.434 9.51994 187.754 9.74394 186.57 10.1919C186.397 10.2527 186.231 10.3213 186.073 10.3977L185.3 8.75194H182.575V10.4186H184.242L184.728 11.444C184.464 11.763 184.246 12.1297 184.074 12.5439C183.626 13.6639 183.402 15.2959 183.402 17.4399C183.402 19.5519 183.626 21.1839 184.074 22.3359C184.488 23.3298 185.164 24.0616 186.102 24.5315C186.179 24.6771 186.278 24.8118 186.396 24.9305C186.709 25.243 187.133 25.4186 187.575 25.4186C187.887 25.4186 188.191 25.3308 188.453 25.1688C189.353 25.2962 190.405 25.3599 191.61 25.3599Z" fill="white"/>
<path d="M196.698 10.1919C195.482 9.74394 193.786 9.51994 191.61 9.51994C189.434 9.51994 187.754 9.74394 186.57 10.1919C186.397 10.2527 186.231 10.3213 186.073 10.3977L186.083 10.4186H197.25C197.075 10.3337 196.891 10.2582 196.698 10.1919Z" fill="white"/>
</svg>
